<svg xmlns="http://www.w3.org/2000/svg" width="15" height="15" viewBox="0 0 15 15">
  <g id="cart-white" transform="translate(63 -73)">
    <path id="Path_4" data-name="Path 4" d="M0,2.75a.5.5,0,0,1,.5-.5H2a.5.5,0,0,1,.485.379L2.89,4.25H14.5a.5.5,0,0,1,.491.592l-1.5,8A.5.5,0,0,1,13,13.25H4a.5.5,0,0,1-.491-.408L2.01,4.857,1.61,3.25H.5A.5.5,0,0,1,0,2.75Zm3.1,2.5,1.313,7h8.17l1.313-7Zm1.9,8a2,2,0,1,0,2,2A2,2,0,0,0,5,13.25Zm7,0a2,2,0,1,0,2,2A2,2,0,0,0,12,13.25Zm-7,1a1,1,0,1,0,1,1A1,1,0,0,0,5,14.25Zm7,0a1,1,0,1,0,1,1A1,1,0,0,0,12,14.25Z" transform="translate(-63 70.75)" fill="#fff" fill-rule="evenodd"/>
  </g>
</svg>
