<svg id="cart" xmlns="http://www.w3.org/2000/svg" width="18.223" height="18.224" viewBox="0 0 18.223 18.224">
  <path id="Path_4" data-name="Path 4" d="M0,2.857A.607.607,0,0,1,.607,2.25H2.43a.607.607,0,0,1,.589.461L3.511,4.68h14.1a.607.607,0,0,1,.6.719l-1.822,9.719a.607.607,0,0,1-.6.5H4.86a.607.607,0,0,1-.6-.5l-1.821-9.7L1.956,3.465H.607A.607.607,0,0,1,0,2.857ZM3.768,5.895l1.6,8.5H15.29l1.6-8.5Zm2.306,9.719a2.43,2.43,0,1,0,2.43,2.43A2.43,2.43,0,0,0,6.075,15.614Zm8.5,0a2.43,2.43,0,1,0,2.43,2.43A2.43,2.43,0,0,0,14.579,15.614Zm-8.5,1.215A1.215,1.215,0,1,0,7.29,18.044,1.215,1.215,0,0,0,6.075,16.829Zm8.5,0a1.215,1.215,0,1,0,1.215,1.215A1.215,1.215,0,0,0,14.579,16.829Z" transform="translate(0 -2.25)" fill="#222831" fill-rule="evenodd"/>
</svg>
