<svg xmlns="http://www.w3.org/2000/svg" width="30.902" height="31.5" viewBox="0 0 30.902 31.5">
  <path id="logo-google-outline" d="M33.269,15.573,33.11,14.9H18.454v6.2h8.757c-.909,4.317-5.128,6.59-8.574,6.59a10.262,10.262,0,0,1-6.9-2.75A9.849,9.849,0,0,1,8.8,17.99a10.168,10.168,0,0,1,2.883-6.945,9.8,9.8,0,0,1,6.855-2.681,8.943,8.943,0,0,1,5.832,2.272l4.408-4.385a15.578,15.578,0,0,0-10.382-4A16.058,16.058,0,0,0,7.033,6.87,15.986,15.986,0,0,0,2.549,18a15.814,15.814,0,0,0,4.31,10.941A16.44,16.44,0,0,0,18.712,33.75a14.621,14.621,0,0,0,10.649-4.476,15.726,15.726,0,0,0,4.09-10.891A18.036,18.036,0,0,0,33.269,15.573Z" transform="translate(-2.549 -2.25)" fill="#fff"/>
</svg>
