<svg xmlns="http://www.w3.org/2000/svg" width="19.5" height="18" viewBox="0 0 19.5 18">
  <path id="md-heart-empty" d="M17.512,4.5a5.767,5.767,0,0,0-4.387,2.058A5.767,5.767,0,0,0,8.738,4.5,5.3,5.3,0,0,0,3.375,9.9c0,3.727,3.314,6.717,8.335,11.33L13.125,22.5l1.415-1.275c5.021-4.613,8.335-7.6,8.335-11.33A5.3,5.3,0,0,0,17.512,4.5ZM13.725,19.936l-.2.183-.4.365-.4-.365-.2-.183a59.535,59.535,0,0,1-5.751-5.719A6.878,6.878,0,0,1,4.88,9.9,3.9,3.9,0,0,1,5.99,7.115,3.814,3.814,0,0,1,8.737,6a4.3,4.3,0,0,1,3.239,1.523l1.149,1.364,1.149-1.364A4.283,4.283,0,0,1,17.513,6a3.834,3.834,0,0,1,2.751,1.115A3.906,3.906,0,0,1,21.375,9.9a6.914,6.914,0,0,1-1.894,4.322,59.732,59.732,0,0,1-5.756,5.719Z" transform="translate(-3.375 -4.5)" fill="#222831"/>
</svg>
