<svg xmlns="http://www.w3.org/2000/svg" width="262.85" height="238.716" viewBox="0 0 262.85 238.716">
  <g id="plant_white" data-name="plant white" transform="translate(0 -21.568)">
    <g id="Group_1" data-name="Group 1" transform="translate(0 21.568)">
      <path id="Path_1" data-name="Path 1" d="M105.668,47.182C82.7,24.23,37.765,21.568,5.968,21.568A5.968,5.968,0,0,0,0,27.536c0,31.809,2.662,76.747,25.614,99.712a55.575,55.575,0,0,0,39.281,14.025,59.514,59.514,0,0,0,40.773-14.025C122.772,110.132,125.911,67.426,105.668,47.182Z" transform="translate(0 -21.568)" fill="#fff"/>
      <path id="Path_2" data-name="Path 2" d="M369.568,63.765c-31.809,0-76.747,2.662-99.712,25.614-20.291,20.291-17.1,62.938,0,80.054a59.526,59.526,0,0,0,40.785,14.025,55.587,55.587,0,0,0,39.281-14.025c22.964-22.964,25.614-67.9,25.614-99.712A5.967,5.967,0,0,0,369.568,63.765Z" transform="translate(-112.685 -40.156)" fill="#fff"/>
    </g>
    <path id="Path_3" data-name="Path 3" d="M162.978,297.937a5.968,5.968,0,0,1-5.968-5.968c0-126.579-46.418-158.341-63.892-170.288a46.66,46.66,0,0,1-5.968-4.523,5.968,5.968,0,0,1,8.439-8.439,36.752,36.752,0,0,0,4.273,3.115c15.516,10.611,52.064,35.617,64.7,117.639a143.015,143.015,0,0,1,78.514-97.623,6.457,6.457,0,0,1,8.355,2.638,5.538,5.538,0,0,1-2.083,7.55c-.1.057-.2.11-.3.161l-.967.454c-65.432,30.759-79.17,98.172-79.17,149.317A5.968,5.968,0,0,1,162.978,297.937Z" transform="translate(-37.652 -37.652)" fill="#fff"/>
  </g>
</svg>
