<svg xmlns="http://www.w3.org/2000/svg" width="40.294" height="36.594" viewBox="0 0 40.294 36.594">
  <g id="plant" transform="translate(0 -21.568)">
    <g id="Group_1" data-name="Group 1" transform="translate(0 21.568)">
      <path id="Path_1" data-name="Path 1" d="M16.2,25.495C12.678,21.976,5.789,21.568.915,21.568A.915.915,0,0,0,0,22.483c0,4.876.408,11.765,3.927,15.285a8.519,8.519,0,0,0,6.022,2.15,9.123,9.123,0,0,0,6.25-2.15C18.82,35.144,19.3,28.6,16.2,25.495Z" transform="translate(0 -21.568)" fill="#4caf50"/>
      <path id="Path_2" data-name="Path 2" d="M273.246,63.765c-4.876,0-11.765.408-15.285,3.927-3.111,3.111-2.622,9.648,0,12.272a9.125,9.125,0,0,0,6.252,2.15,8.521,8.521,0,0,0,6.022-2.15c3.52-3.52,3.927-10.409,3.927-15.285A.915.915,0,0,0,273.246,63.765Z" transform="translate(-233.868 -60.146)" fill="#4caf50"/>
    </g>
    <path id="Path_3" data-name="Path 3" d="M97.356,136.305a.915.915,0,0,1-.915-.915c0-19.4-7.116-24.273-9.794-26.1a7.153,7.153,0,0,1-.915-.693.915.915,0,0,1,1.294-1.294,5.635,5.635,0,0,0,.655.478c2.379,1.627,7.981,5.46,9.919,18.033a21.924,21.924,0,0,1,12.036-14.965.99.99,0,0,1,1.281.4.849.849,0,0,1-.319,1.157l-.047.025-.148.07c-10.03,4.715-12.136,15.049-12.136,22.89A.915.915,0,0,1,97.356,136.305Z" transform="translate(-78.144 -78.143)" fill="#388e3c"/>
  </g>
</svg>
