<?xml version="1.0" encoding="UTF-8"?>
<svg xmlns="http://www.w3.org/2000/svg" xmlns:xlink="http://www.w3.org/1999/xlink" width="80pt" height="80pt" viewBox="0 0 80 80" version="1.1">
<g id="surface1">
<path style=" stroke:none;fill-rule:nonzero;fill:rgb(100%,100%,100%);fill-opacity:1;" d="M 73.652344 33.652344 L 70.175781 33.652344 L 46.34375 6.570312 C 46.347656 6.496094 46.347656 6.421875 46.347656 6.347656 C 46.347656 2.847656 43.5 0 40 0 C 36.5 0 33.652344 2.847656 33.652344 6.347656 C 33.652344 6.421875 33.652344 6.496094 33.65625 6.570312 L 28.730469 12.167969 C 28.304688 12.65625 28.351562 13.394531 28.835938 13.824219 C 29.058594 14.019531 29.335938 14.113281 29.609375 14.113281 C 29.933594 14.113281 30.257812 13.980469 30.488281 13.71875 L 34.378906 9.296875 C 34.832031 10.152344 35.472656 10.894531 36.246094 11.464844 L 16.722656 33.652344 L 12.949219 33.652344 L 27.417969 17.207031 C 27.84375 16.722656 27.796875 15.980469 27.3125 15.554688 C 26.828125 15.125 26.085938 15.175781 25.660156 15.660156 L 9.824219 33.652344 L 6.347656 33.652344 C 2.847656 33.652344 0 36.5 0 40 L 0 73.652344 C 0 77.152344 2.847656 80 6.347656 80 L 16.703125 80 C 17.351562 80 17.875 79.476562 17.875 78.828125 C 17.875 78.179688 17.351562 77.65625 16.703125 77.65625 L 6.347656 77.65625 C 4.140625 77.65625 2.34375 75.859375 2.34375 73.652344 L 2.34375 40 C 2.34375 37.792969 4.140625 35.996094 6.347656 35.996094 L 73.652344 35.996094 C 75.859375 35.996094 77.65625 37.792969 77.65625 40 L 77.65625 73.652344 C 77.65625 75.859375 75.859375 77.65625 73.652344 77.65625 L 21.445312 77.65625 C 20.796875 77.65625 20.273438 78.179688 20.273438 78.828125 C 20.273438 79.476562 20.796875 80 21.445312 80 L 73.652344 80 C 77.152344 80 80 77.152344 80 73.652344 L 80 40 C 80 36.5 77.152344 33.652344 73.652344 33.652344 Z M 67.050781 33.652344 L 63.277344 33.652344 L 43.753906 11.464844 C 44.527344 10.894531 45.167969 10.152344 45.621094 9.296875 Z M 40 2.34375 C 42.207031 2.34375 44.003906 4.140625 44.003906 6.347656 C 44.003906 8.558594 42.207031 10.355469 40 10.355469 C 37.792969 10.355469 35.996094 8.558594 35.996094 6.347656 C 35.996094 4.140625 37.792969 2.34375 40 2.34375 Z M 38.453125 12.507812 C 38.949219 12.632812 39.464844 12.699219 40 12.699219 C 40.535156 12.699219 41.050781 12.632812 41.546875 12.507812 L 60.15625 33.652344 L 19.84375 33.652344 Z M 38.453125 12.507812 "/>
<path style=" stroke:none;fill-rule:nonzero;fill:rgb(100%,100%,100%);fill-opacity:1;" d="M 7.519531 40.324219 L 7.519531 39.675781 C 7.519531 39.027344 6.996094 38.503906 6.347656 38.503906 C 5.703125 38.503906 5.175781 39.027344 5.175781 39.675781 L 5.175781 40.324219 C 5.175781 40.972656 5.703125 41.496094 6.347656 41.496094 C 6.996094 41.496094 7.519531 40.972656 7.519531 40.324219 Z M 7.519531 40.324219 "/>
<path style=" stroke:none;fill-rule:nonzero;fill:rgb(100%,100%,100%);fill-opacity:1;" d="M 10.433594 72.875 C 10.675781 74.003906 11.6875 74.824219 12.84375 74.824219 L 67.148438 74.824219 C 68.316406 74.824219 69.332031 73.992188 69.5625 72.851562 C 69.894531 71.210938 71.214844 69.890625 72.851562 69.5625 C 73.996094 69.332031 74.824219 68.320312 74.824219 67.148438 L 74.824219 46.503906 C 74.824219 45.332031 73.992188 44.316406 72.851562 44.085938 C 71.214844 43.757812 69.894531 42.4375 69.5625 40.800781 C 69.332031 39.65625 68.316406 38.828125 67.152344 38.828125 L 12.84375 38.828125 C 11.6875 38.828125 10.675781 39.648438 10.433594 40.777344 C 10.105469 42.332031 8.789062 43.597656 7.160156 43.925781 C 6.011719 44.15625 5.175781 45.171875 5.175781 46.34375 L 5.175781 67.308594 C 5.175781 68.480469 6.011719 69.496094 7.15625 69.726562 C 8.785156 70.050781 10.101562 71.316406 10.433594 72.875 Z M 7.519531 67.308594 L 7.519531 46.339844 C 7.519531 46.285156 7.5625 46.234375 7.621094 46.222656 C 10.152344 45.714844 12.203125 43.722656 12.726562 41.261719 C 12.738281 41.210938 12.785156 41.171875 12.84375 41.171875 L 67.152344 41.171875 C 67.207031 41.171875 67.253906 41.210938 67.265625 41.261719 C 67.78125 43.8125 69.839844 45.871094 72.386719 46.386719 C 72.441406 46.394531 72.480469 46.445312 72.480469 46.503906 L 72.480469 67.148438 C 72.480469 67.203125 72.441406 67.253906 72.390625 67.265625 C 69.839844 67.777344 67.78125 69.835938 67.265625 72.386719 C 67.253906 72.441406 67.207031 72.480469 67.148438 72.480469 L 12.84375 72.480469 C 12.789062 72.480469 12.738281 72.441406 12.726562 72.386719 C 12.203125 69.925781 10.152344 67.933594 7.617188 67.425781 C 7.5625 67.417969 7.519531 67.367188 7.519531 67.308594 Z M 7.519531 67.308594 "/>
<path style=" stroke:none;fill-rule:nonzero;fill:rgb(100%,100%,100%);fill-opacity:1;" d="M 74.824219 40.324219 L 74.824219 39.675781 C 74.824219 39.027344 74.296875 38.503906 73.652344 38.503906 C 73.003906 38.503906 72.480469 39.027344 72.480469 39.675781 L 72.480469 40.324219 C 72.480469 40.972656 73.003906 41.496094 73.652344 41.496094 C 74.296875 41.496094 74.824219 40.972656 74.824219 40.324219 Z M 74.824219 40.324219 "/>
<path style=" stroke:none;fill-rule:nonzero;fill:rgb(100%,100%,100%);fill-opacity:1;" d="M 5.175781 73.328125 L 5.175781 73.976562 C 5.175781 74.621094 5.703125 75.148438 6.347656 75.148438 C 6.996094 75.148438 7.519531 74.621094 7.519531 73.976562 L 7.519531 73.328125 C 7.519531 72.679688 6.996094 72.15625 6.347656 72.15625 C 5.703125 72.15625 5.175781 72.679688 5.175781 73.328125 Z M 5.175781 73.328125 "/>
<path style=" stroke:none;fill-rule:nonzero;fill:rgb(100%,100%,100%);fill-opacity:1;" d="M 72.480469 73.328125 L 72.480469 73.976562 C 72.480469 74.621094 73.003906 75.148438 73.652344 75.148438 C 74.296875 75.148438 74.824219 74.621094 74.824219 73.976562 L 74.824219 73.328125 C 74.824219 72.679688 74.296875 72.15625 73.652344 72.15625 C 73.003906 72.15625 72.480469 72.679688 72.480469 73.328125 Z M 72.480469 73.328125 "/>
<path style=" stroke:none;fill-rule:nonzero;fill:rgb(100%,100%,100%);fill-opacity:1;" d="M 46.402344 64.632812 C 46.488281 64.648438 46.570312 64.660156 47.972656 64.660156 C 48.660156 64.660156 49.664062 64.65625 51.140625 64.648438 C 51.789062 64.644531 52.308594 64.117188 52.304688 63.472656 C 52.300781 62.824219 51.777344 62.304688 51.132812 62.304688 C 51.132812 62.304688 51.128906 62.304688 51.128906 62.304688 C 49.941406 62.3125 48.660156 62.316406 47.773438 62.316406 L 47.773438 50.546875 C 47.773438 49.898438 47.25 49.375 46.601562 49.375 C 45.953125 49.375 45.429688 49.898438 45.429688 50.546875 L 45.429688 63.476562 C 45.429688 64.046875 45.839844 64.535156 46.402344 64.632812 Z M 46.402344 64.632812 "/>
<path style=" stroke:none;fill-rule:nonzero;fill:rgb(100%,100%,100%);fill-opacity:1;" d="M 55.324219 63.492188 C 55.324219 63.804688 55.449219 64.101562 55.671875 64.320312 C 55.890625 64.539062 56.1875 64.660156 56.496094 64.660156 L 56.5 64.660156 C 56.609375 64.660156 59.140625 64.648438 60.152344 64.632812 C 63.699219 64.570312 66.273438 61.449219 66.273438 57.207031 C 66.273438 52.75 63.761719 49.757812 60.027344 49.757812 L 56.46875 49.757812 C 56.160156 49.757812 55.859375 49.878906 55.640625 50.101562 C 55.421875 50.320312 55.296875 50.621094 55.296875 50.929688 C 55.296875 50.929688 55.324219 63.445312 55.324219 63.492188 Z M 60.027344 52.101562 C 62.902344 52.101562 63.929688 54.738281 63.929688 57.207031 C 63.929688 59.625 62.734375 62.242188 60.113281 62.289062 C 59.554688 62.296875 58.492188 62.304688 57.664062 62.3125 C 57.660156 60.839844 57.648438 53.625 57.644531 52.101562 Z M 60.027344 52.101562 "/>
<path style=" stroke:none;fill-rule:nonzero;fill:rgb(100%,100%,100%);fill-opacity:1;" d="M 19.410156 64.660156 C 21.882812 64.660156 24.035156 63.039062 24.417969 60.890625 C 24.707031 59.261719 23.945312 57.128906 20.941406 56.019531 C 19.277344 55.40625 17.734375 54.738281 17.34375 54.5625 C 16.933594 54.265625 16.738281 53.789062 16.8125 53.273438 C 16.90625 52.621094 17.40625 52.097656 18.152344 51.871094 C 20.21875 51.25 22.089844 52.746094 22.128906 52.777344 C 22.621094 53.1875 23.359375 53.125 23.773438 52.628906 C 24.191406 52.132812 24.125 51.394531 23.632812 50.980469 C 23.515625 50.882812 20.785156 48.628906 17.476562 49.625 C 15.859375 50.113281 14.714844 51.382812 14.492188 52.9375 C 14.285156 54.386719 14.910156 55.78125 16.128906 56.574219 C 16.179688 56.609375 16.234375 56.636719 16.292969 56.664062 C 16.367188 56.695312 18.136719 57.484375 20.128906 58.21875 C 21.550781 58.742188 22.273438 59.566406 22.109375 60.476562 C 21.949219 61.367188 20.949219 62.316406 19.410156 62.316406 C 18 62.316406 16.640625 61.742188 15.769531 60.78125 C 15.335938 60.304688 14.59375 60.265625 14.113281 60.699219 C 13.632812 61.136719 13.597656 61.875 14.03125 62.355469 C 15.339844 63.800781 17.351562 64.660156 19.410156 64.660156 Z M 19.410156 64.660156 "/>
<path style=" stroke:none;fill-rule:nonzero;fill:rgb(100%,100%,100%);fill-opacity:1;" d="M 34.953125 64.660156 C 39.167969 64.660156 42.597656 61.230469 42.597656 57.015625 C 42.597656 52.800781 39.167969 49.375 34.953125 49.375 C 30.738281 49.375 27.308594 52.800781 27.308594 57.015625 C 27.308594 61.230469 30.738281 64.660156 34.953125 64.660156 Z M 34.953125 51.71875 C 37.875 51.71875 40.253906 54.09375 40.253906 57.015625 C 40.253906 59.9375 37.875 62.316406 34.953125 62.316406 C 32.03125 62.316406 29.652344 59.9375 29.652344 57.015625 C 29.652344 54.09375 32.03125 51.71875 34.953125 51.71875 Z M 34.953125 51.71875 "/>
<path style=" stroke:none;fill-rule:nonzero;fill:rgb(100%,100%,100%);fill-opacity:1;" d="M 8.9375 12.699219 L 10.355469 12.699219 L 10.355469 14.113281 C 10.355469 14.761719 10.878906 15.285156 11.527344 15.285156 C 12.171875 15.285156 12.699219 14.761719 12.699219 14.113281 L 12.699219 12.699219 L 14.113281 12.699219 C 14.761719 12.699219 15.285156 12.171875 15.285156 11.527344 C 15.285156 10.878906 14.761719 10.355469 14.113281 10.355469 L 12.699219 10.355469 L 12.699219 8.9375 C 12.699219 8.289062 12.171875 7.765625 11.527344 7.765625 C 10.878906 7.765625 10.355469 8.289062 10.355469 8.9375 L 10.355469 10.355469 L 8.9375 10.355469 C 8.289062 10.355469 7.765625 10.878906 7.765625 11.527344 C 7.765625 12.171875 8.289062 12.699219 8.9375 12.699219 Z M 8.9375 12.699219 "/>
<path style=" stroke:none;fill-rule:nonzero;fill:rgb(100%,100%,100%);fill-opacity:1;" d="M 68.472656 17.875 L 69.890625 17.875 L 69.890625 19.292969 C 69.890625 19.9375 70.414062 20.464844 71.0625 20.464844 C 71.710938 20.464844 72.234375 19.9375 72.234375 19.292969 L 72.234375 17.875 L 73.652344 17.875 C 74.296875 17.875 74.824219 17.351562 74.824219 16.703125 C 74.824219 16.054688 74.296875 15.53125 73.652344 15.53125 L 72.234375 15.53125 L 72.234375 14.113281 C 72.234375 13.46875 71.710938 12.941406 71.0625 12.941406 C 70.414062 12.941406 69.890625 13.46875 69.890625 14.113281 L 69.890625 15.53125 L 68.472656 15.53125 C 67.828125 15.53125 67.300781 16.054688 67.300781 16.703125 C 67.300781 17.351562 67.828125 17.875 68.472656 17.875 Z M 68.472656 17.875 "/>
<path style=" stroke:none;fill-rule:nonzero;fill:rgb(100%,100%,100%);fill-opacity:1;" d="M 37.410156 25.886719 L 35.996094 25.886719 L 35.996094 24.46875 C 35.996094 23.820312 35.46875 23.296875 34.824219 23.296875 C 34.175781 23.296875 33.652344 23.820312 33.652344 24.46875 L 33.652344 25.886719 L 32.234375 25.886719 C 31.585938 25.886719 31.0625 26.410156 31.0625 27.058594 C 31.0625 27.703125 31.585938 28.230469 32.234375 28.230469 L 33.652344 28.230469 L 33.652344 29.644531 C 33.652344 30.292969 34.175781 30.816406 34.824219 30.816406 C 35.46875 30.816406 35.996094 30.292969 35.996094 29.644531 L 35.996094 28.230469 L 37.410156 28.230469 C 38.058594 28.230469 38.582031 27.703125 38.582031 27.058594 C 38.582031 26.410156 38.058594 25.886719 37.410156 25.886719 Z M 37.410156 25.886719 "/>
</g>
</svg>
