<svg xmlns="http://www.w3.org/2000/svg" width="23.073" height="17.504" viewBox="0 0 23.073 17.504">
  <g id="sort-down" transform="translate(-1.123 -4.5)">
    <path id="Path_5" data-name="Path 5" d="M6.421,4.5a.8.8,0,0,1,.8.8V21.207a.8.8,0,0,1-1.591,0V5.3A.8.8,0,0,1,6.421,4.5Z" transform="translate(-1.318)" fill-rule="evenodd"/>
    <path id="Path_6" data-name="Path 6" d="M8.848,18.121a.8.8,0,0,1,0,1.127L5.665,22.43a.8.8,0,0,1-1.127,0L1.356,19.247a.8.8,0,0,1,1.127-1.127L5.1,20.741,7.722,18.12a.8.8,0,0,1,1.127,0Zm2.619-1.028a.8.8,0,0,1,.8-.8h4.773a.8.8,0,0,1,0,1.591H12.262A.8.8,0,0,1,11.467,17.092Zm0-4.773a.8.8,0,0,1,.8-.8h7.956a.8.8,0,0,1,0,1.591H12.262A.8.8,0,0,1,11.467,12.319Zm0-4.773a.8.8,0,0,1,.8-.8H23.4a.8.8,0,1,1,0,1.591H12.262A.8.8,0,0,1,11.467,7.546Zm0,14.32a.8.8,0,0,1,.8-.8h1.591a.8.8,0,1,1,0,1.591H12.262A.8.8,0,0,1,11.467,21.866Z" transform="translate(0 -0.659)" fill-rule="evenodd"/>
  </g>
</svg>
